{"title":"Legally Blonde (2001) - DVDRip - AC3 - ENG","uid":4547870,"size":839341999,"categoryP":"video","categoryS":"movies","magnet":"?xt=urn:btih:b473e1183822c01457a35afbbb384fea55c91ca2&amp;dn=Legally+Blonde+%282001%29+-+DVDRip+-+AC3+-+ENG&amp;tr=udp%3A%2F%2Ftracker.openbittorrent.com%3A80&amp;tr=udp%3A%2F%2Fopen.demonii.com%3A1337&amp;tr=udp%3A%2F%2Ftracker.coppersurfer.tk%3A6969&amp;tr=udp%3A%2F%2Fexodus.desync.com%3A6969","seeders":26,"leechers":1,"uploader":"206andy206","files":-1,"time":1228197640,"description":"IMDb: http://www.imdb.com/title/tt0250494\nUser Rating: 6.2/10   35,991 votes\nRelease Date: 26 October 2001 (UK)\nGenre: Comedy\nTagline: This summer go blonde!\n\nPlot: When a blonde sorority queen is dumped by her boyfriend, she decides to follow him to law school to get him back and, once there, learns she has more legal savvy than she ever imagined. \n\nCast:\nReese Witherspoon\t... \tElle Woods\nLuke Wilson\t        ... \tEmmett\nSelma Blair     \t... \tVivian\nMatthew Davis    \t... \tWarner\nVictor Garber    \t... \tProfessor Callahan\nJennifer Coolidge\t... \tPaulette\nHolland Taylor  \t... \tProfessor Stromwell\nAli Larter      \t... \tBrooke Taylor Windham\n\n\n\n\n\nGeneral\nComplete name                    : Legally Blonde (2001) - DVDRip - AC3 - ENG.avi\nFormat                           : AVI\nSource                           : PAL DVD\nFile size                        : 800 MiB\nDuration                         : 1h 32mn\nOveral bit rate                  : 1216 Kbps\nLanguage                         : English\n\nVideo\nFormat                           : XVID\nDuration                         : 1h 32mn\nBit rate                         : 761 Kbps\nWidth                            : 624 pixels\nHeight                           : 272 pixels\nDisplay aspect ratio             : 2.25\nFrame rate                       : 25.000 fps\nResolution                       : 8 bits\nColorimetry                      : 4:2:0\nScan type                        : Progressive\nBits/(Pixel*Frame)               : 0.179\nStream size                      : 501 MiB (63%)\n\nAudio\nFormat                           : AC-3\nFormat/Info                      : Audio Coding 3\nCodec ID                         : 2000\nDuration                         : 1h 32mn\nBit rate mode                    : Constant\nBit rate                         : 448 Kbps\nChannel(s)                       : 6 channels\nChannel positions                : Front: L C R, Rear: L R, LFE\nSampling rate                    : 48.0 KHz\nStream size                      : 295 MiB (37%)\n\n\n\nInfo Hash: B473E1183822C01457A35AFBBB384FEA55C91CA2\n\n\nTrackers: &lt;a href=&quot;\nhttp://tpb.tracker.thepiratebay.se:80/announce&quot; rel=&quot;nofollow&quot; target=&quot;_NEW&quot;&gt;\nhttp://tpb.tracker.thepiratebay.se:80/announce&lt;/a&gt;\nhttp://denis.stalker.h3q.com:6969/announce\nhttp://www.torrent-downloads.to:5869/announce\nhttp://vip.tracker.thepiratebay.se/announce\n\n\n\n\nEnjoy.","torrent":{"xt":"urn:btih:b473e1183822c01457a35afbbb384fea55c91ca2","amp;dn":"Legally+Blonde+%282001%29+-+DVDRip+-+AC3+-+ENG","amp;tr":["udp%3A%2F%2Ftracker.openbittorrent.com%3A80","udp%3A%2F%2Fopen.demonii.com%3A1337","udp%3A%2F%2Ftracker.coppersurfer.tk%3A6969","udp%3A%2F%2Fexodus.desync.com%3A6969"],"infoHash":"b473e1183822c01457a35afbbb384fea55c91ca2","infoHashBuffer":{"type":"Buffer","data":[180,115,225,24,56,34,192,20,87,163,90,251,187,56,79,234,85,201,28,162]},"announce":[],"urlList":[]}}